<?xml version="1.0" standalone="no"?><!DOCTYPE svg PUBLIC "-//W3C//DTD SVG 1.1//EN" "http://www.w3.org/Graphics/SVG/1.1/DTD/svg11.dtd"><svg t="1557035671322" class="icon" style="" viewBox="0 0 1024 1024" version="1.1" xmlns="http://www.w3.org/2000/svg" p-id="3132" xmlns:xlink="http://www.w3.org/1999/xlink" width="200" height="200"><defs><style type="text/css"></style></defs><path d="M512 0c24.32 0 44.8 20.48 44.8 44.8v166.4c0 24.32-20.48 44.8-44.8 44.8s-44.8-20.48-44.8-44.8v-166.4C467.2 20.48 487.68 0 512 0z" fill="#E9E9E9" p-id="3133"></path><path d="M768 69.12c21.76 12.8 28.16 39.68 16.64 61.44l-83.2 144.64c-12.8 21.76-39.68 28.16-61.44 16.64-21.76-12.8-28.16-39.68-16.64-61.44l83.2-144.64c12.8-21.76 39.68-29.44 61.44-16.64z" fill="#989697" p-id="3134"></path><path d="M954.88 256c12.8 21.76 5.12 48.64-16.64 61.44L793.6 400.64c-21.76 12.8-48.64 5.12-61.44-16.64-12.8-21.76-5.12-48.64 16.64-61.44l144.64-83.2c21.76-11.52 49.92-5.12 61.44 16.64z" fill="#9B999A" p-id="3135"></path><path d="M1024 512c0 24.32-20.48 44.8-44.8 44.8h-166.4c-24.32 0-44.8-20.48-44.8-44.8s20.48-44.8 44.8-44.8h166.4c24.32 0 44.8 20.48 44.8 44.8z" fill="#A3A1A2" p-id="3136"></path><path d="M954.88 768c-12.8 21.76-39.68 28.16-61.44 16.64l-144.64-83.2c-21.76-12.8-28.16-39.68-16.64-61.44 12.8-21.76 39.68-28.16 61.44-16.64l144.64 83.2c21.76 12.8 29.44 39.68 16.64 61.44z" fill="#ABA9AA" p-id="3137"></path><path d="M768 954.88c-21.76 12.8-48.64 5.12-61.44-16.64L623.36 793.6c-12.8-21.76-5.12-48.64 16.64-61.44 21.76-12.8 48.64-5.12 61.44 16.64l83.2 144.64c11.52 21.76 5.12 49.92-16.64 61.44z" fill="#B2B2B2" p-id="3138"></path><path d="M512 1024c-24.32 0-44.8-20.48-44.8-44.8v-166.4c0-24.32 20.48-44.8 44.8-44.8s44.8 20.48 44.8 44.8v166.4c0 24.32-20.48 44.8-44.8 44.8z" fill="#BAB8B9" p-id="3139"></path><path d="M256 954.88c-21.76-12.8-28.16-39.68-16.64-61.44l83.2-144.64c12.8-21.76 39.68-28.16 61.44-16.64 21.76 12.8 28.16 39.68 16.64 61.44l-83.2 144.64c-12.8 21.76-39.68 29.44-61.44 16.64z" fill="#C2C0C1" p-id="3140"></path><path d="M69.12 768c-12.8-21.76-5.12-48.64 16.64-61.44L230.4 623.36c21.76-12.8 48.64-5.12 61.44 16.64 12.8 21.76 5.12 48.64-16.64 61.44l-144.64 83.2c-21.76 11.52-49.92 5.12-61.44-16.64z" fill="#CBCBCB" p-id="3141"></path><path d="M0 512c0-24.32 20.48-44.8 44.8-44.8h166.4c24.32 0 44.8 20.48 44.8 44.8s-20.48 44.8-44.8 44.8h-166.4C20.48 556.8 0 536.32 0 512z" fill="#D2D2D2" p-id="3142"></path><path d="M69.12 256c12.8-21.76 39.68-28.16 61.44-16.64l144.64 83.2c21.76 12.8 28.16 39.68 16.64 61.44-12.8 21.76-39.68 28.16-61.44 16.64L85.76 317.44c-21.76-12.8-29.44-39.68-16.64-61.44z" fill="#DADADA" p-id="3143"></path><path d="M256 69.12c21.76-12.8 48.64-5.12 61.44 16.64L400.64 230.4c12.8 21.76 5.12 48.64-16.64 61.44-21.76 12.8-48.64 5.12-61.44-16.64l-83.2-144.64c-11.52-21.76-5.12-49.92 16.64-61.44z" fill="#E2E2E2" p-id="3144"></path></svg>